<?xml version="1.0" encoding="UTF-8"?>
<svg xmlns="http://www.w3.org/2000/svg" viewBox="0 0 118.89 120.13">
  <defs>
    <style>
      .cls-1 {
        fill: #ffa8a8;
      }
    </style>
  </defs>
  <g id="Layer_1" data-name="Layer 1"/>
  <g id="Layer_2" data-name="Layer 2">
    <g id="Layer_1-2" data-name="Layer 1">
      <g>
        <path class="cls-1" d="M16.54,29.43H53.9v61.28H16.54C7.41,90.71,0,83.3,0,74.17H0v-28.2c0-9.13,7.41-16.54,16.54-16.54Z"/>
        <polygon class="cls-1" points="7.45 60.07 83.76 120.13 83.76 0 7.45 60.07"/>
        <path class="cls-1" d="M112.42,16.3h0c1.01,0,1.83,.82,1.83,1.83h0c6.19,27.61,6.19,56.26,0,83.87,0,1.01-.82,1.83-1.83,1.83h0c-1.01,0-1.83-.82-1.83-1.83h0c5.54-27.68,5.54-56.19,0-83.87,0-1.01,.82-1.83,1.83-1.83Z"/>
        <path class="cls-1" d="M94.99,25.65h0c.9-.09,1.71,.54,1.83,1.44,6.18,21.55,6.18,44.4,0,65.95-.12,.9-.93,1.53-1.83,1.44h0c-.9,.1-1.72-.54-1.84-1.44,5.54-21.63,5.54-44.32,0-65.95,.12-.9,.94-1.54,1.84-1.44Z"/>
      </g>
    </g>
  </g>
</svg>