<?xml version="1.0" encoding="UTF-8"?>
<svg xmlns="http://www.w3.org/2000/svg" xmlns:xlink="http://www.w3.org/1999/xlink" viewBox="0 0 1405.3 644.33">
  <defs>
    <style>
      .cls-1, .cls-2 {
        fill: #4c2243;
      }

      .cls-3 {
        fill: #6286e2;
      }

      .cls-4 {
        fill: #230649;
      }

      .cls-5 {
        fill: #e06e7e;
      }

      .cls-5, .cls-6, .cls-2 {
        fill-rule: evenodd;
      }

      .cls-7 {
        fill: #fff;
      }

      .cls-8 {
        fill: #7b6fa2;
      }

      .cls-9 {
        fill: #5d4174;
      }

      .cls-6 {
        fill: #e16074;
      }

      .cls-10 {
        fill: #4564c0;
      }

      .cls-11 {
        fill: #3f3d56;
      }

      .cls-12 {
        fill: #220448;
      }

      .cls-13 {
        fill: #6086e0;
      }

      .cls-14 {
        fill: url(#linear-gradient);
      }

      .cls-15 {
        fill: #ff8aa0;
      }

      .cls-16 {
        stroke-linejoin: round;
        stroke-width: 3.72px;
      }

      .cls-16, .cls-17, .cls-18, .cls-19, .cls-20, .cls-21, .cls-22, .cls-23, .cls-24, .cls-25, .cls-26, .cls-27, .cls-28, .cls-29 {
        fill: none;
      }

      .cls-16, .cls-17, .cls-18, .cls-19, .cls-22, .cls-24, .cls-25, .cls-26, .cls-27, .cls-28, .cls-29 {
        stroke-linecap: round;
      }

      .cls-16, .cls-18, .cls-21, .cls-22, .cls-24, .cls-25, .cls-28, .cls-29 {
        stroke: #fff;
      }

      .cls-30 {
        fill: #24074a;
      }

      .cls-31 {
        fill: #1c85e8;
      }

      .cls-32 {
        fill: #1c0748;
      }

      .cls-17, .cls-18, .cls-19, .cls-20, .cls-21, .cls-22, .cls-24, .cls-25, .cls-26, .cls-27, .cls-28, .cls-29 {
        stroke-miterlimit: 10;
      }

      .cls-17, .cls-19, .cls-20, .cls-21 {
        stroke-width: 10px;
      }

      .cls-17, .cls-27 {
        stroke: #5661ae;
      }

      .cls-33 {
        fill: #6284e2;
      }

      .cls-34 {
        fill: #81acf8;
      }

      .cls-35 {
        fill: #37fffd;
      }

      .cls-36 {
        fill: #cc8e5c;
      }

      .cls-18, .cls-25 {
        stroke-width: 6.73px;
      }

      .cls-37 {
        fill: #36fefe;
      }

      .cls-19, .cls-26 {
        stroke: #d4dcf4;
      }

      .cls-38 {
        fill: #f4d240;
      }

      .cls-39 {
        fill: #5c4070;
      }

      .cls-20 {
        stroke: #1c85e8;
      }

      .cls-40 {
        fill: #6285e1;
      }

      .cls-41 {
        fill: #362355;
      }

      .cls-42 {
        fill: #212121;
      }

      .cls-22, .cls-24 {
        stroke-width: 7.43px;
      }

      .cls-22, .cls-25, .cls-29 {
        isolation: isolate;
        opacity: .4;
      }

      .cls-43 {
        fill: #6285df;
      }

      .cls-44 {
        fill: #836d9a;
      }

      .cls-45 {
        fill: #836d98;
      }

      .cls-26, .cls-27 {
        stroke-width: 12px;
      }

      .cls-46 {
        fill: #f2fdff;
      }

      .cls-47 {
        fill: #6085e0;
      }

      .cls-48 {
        fill: #4463bd;
      }

      .cls-49 {
        fill: #ff9b92;
      }

      .cls-28, .cls-29 {
        stroke-width: 4px;
      }

      .cls-50 {
        fill: #6285e2;
      }

      .cls-51 {
        fill: #210749;
      }

      .cls-52 {
        fill: #febb94;
      }

      .cls-53 {
        fill: #7ec4a4;
      }
    </style>
    <linearGradient id="linear-gradient" x1="360.38" y1="294.8" x2="951.25" y2="294.8" gradientTransform="matrix(1, 0, 0, 1, 0, 0)" gradientUnits="userSpaceOnUse">
      <stop offset="0" stop-color="#fff"/>
      <stop offset="1" stop-color="#94b9ff"/>
    </linearGradient>
  </defs>
  <g id="Layer_1" data-name="Layer 1"/>
  <g id="Layer_2" data-name="Layer 2">
    <g id="Layer_1-2" data-name="Layer 1">
      <g>
        <rect class="cls-36" x="711.67" y="518.76" width="22.53" height="112.25" transform="translate(1624.2 777.04) rotate(154.15)"/>
        <rect class="cls-36" x="559.19" y="521.92" width="18.66" height="112.25" transform="translate(308.92 -190.04) rotate(25.85)"/>
        <g>
          <rect class="cls-14" x="360.38" y="56.9" width="590.87" height="475.79" rx="7.65" ry="7.65"/>
          <g>
            <g>
              <rect class="cls-33" x="1106.28" y="28.56" width="232.66" height="221" rx="17.57" ry="17.57"/>
              <rect class="cls-34" x="1042.92" y="28.56" width="226.73" height="221" rx="17.57" ry="17.57"/>
              <rect class="cls-13" x="1197.27" y="62.63" width="44.75" height="152.87" rx="4" ry="4"/>
              <rect class="cls-45" x="1025.55" y="62.63" width="194.09" height="152.87" rx="4" ry="4"/>
              <rect class="cls-9" x="1039.7" y="76.34" width="29.56" height="125.44" rx="2.14" ry="2.14"/>
              <rect class="cls-30" x="1052.65" y="76.34" width="152.3" height="125.44" rx="4" ry="4"/>
              <g>
                <rect class="cls-35" x="1082.16" y="99.53" width="21" height="33.81"/>
                <rect class="cls-35" x="1085.36" y="97.99" width="14.6" height="36.89" transform="translate(1209.09 -976.23) rotate(90)"/>
              </g>
              <g>
                <rect class="cls-35" x="1143.69" y="99.53" width="21" height="33.81"/>
                <rect class="cls-35" x="1146.89" y="97.99" width="14.6" height="36.89" transform="translate(1270.62 -1037.76) rotate(90)"/>
              </g>
              <g>
                <rect class="cls-37" x="1072.01" y="158.76" width="101.18" height="10.74"/>
                <rect class="cls-37" x="1094.99" y="178.14" width="55.23" height="10.74"/>
                <rect class="cls-37" x="1084.25" y="167.4" width="10.74" height="10.74"/>
                <rect class="cls-37" x="1150.21" y="167.4" width="10.74" height="10.74"/>
              </g>
              <rect class="cls-48" x="1286.45" y="84.16" width="60.39" height="109.81" rx="9.42" ry="9.42"/>
              <rect class="cls-34" x="1302.27" y="84.16" width="63.56" height="109.81" rx="9.42" ry="9.42"/>
              <rect class="cls-3" x="1319.59" y="94.61" width="34.65" height="88.91" rx="5.19" ry="5.19"/>
              <rect class="cls-10" x="1314.74" y="94.61" width="27.77" height="88.91" rx="5.19" ry="5.19"/>
            </g>
            <rect class="cls-8" x="1139.6" y="249.57" width="115.33" height="15.68"/>
            <rect class="cls-8" x="1139.6" y="272.74" width="115.33" height="15.68"/>
            <rect class="cls-8" x="1139.6" y="295.91" width="115.33" height="15.68"/>
            <rect class="cls-41" x="1156.49" y="265.24" width="81.55" height="7.49"/>
            <rect class="cls-41" x="1156.49" y="288.42" width="81.55" height="7.49"/>
            <rect class="cls-34" x="989.24" y="311.59" width="372.51" height="302.31" rx="12.95" ry="12.95"/>
            <rect class="cls-40" x="1302.53" y="311.59" width="102.76" height="302.31" rx="12.95" ry="12.95"/>
            <g>
              <rect class="cls-50" x="1177.66" y="360.45" width="91.99" height="91.99" rx="4" ry="4"/>
              <rect class="cls-44" x="1020.27" y="360.45" width="226.79" height="91.99" rx="4" ry="4"/>
              <rect class="cls-51" x="1045.68" y="377.43" width="175.97" height="58.02"/>
              <rect class="cls-37" x="1191.9" y="388.86" width="10.74" height="10.74"/>
              <rect class="cls-37" x="1156.49" y="399.6" width="35.41" height="10.74"/>
              <rect class="cls-37" x="1131.38" y="410.33" width="25.12" height="10.74"/>
              <rect class="cls-37" x="1115.06" y="399.6" width="16.32" height="10.74"/>
              <rect class="cls-37" x="1078.61" y="388.86" width="36.45" height="10.74"/>
              <rect class="cls-37" x="1065.49" y="399.6" width="13.12" height="10.74"/>
            </g>
            <g>
              <g>
                <path class="cls-43" d="M1097.46,488.6v72.41c0,5.41-3.17,10.1-7.76,12.26-1.76,.87-3.74,1.33-5.84,1.33-7.51,0-13.61-6.08-13.61-13.59v-72.41c0-7.51,6.1-13.61,13.61-13.61,2.1,0,4.08,.46,5.84,1.33,1.41,.65,2.69,1.56,3.78,2.65,2.46,2.46,3.98,5.88,3.98,9.63Z"/>
                <path class="cls-32" d="M1097.46,488.6v72.41c0,5.41-3.17,10.1-7.76,12.26-4.59-2.16-7.78-6.83-7.78-12.26v-72.41c0-3.76,1.51-7.17,3.98-9.63,1.09-1.09,2.38-2,3.8-2.65,1.41,.65,2.69,1.56,3.78,2.65,2.46,2.46,3.98,5.88,3.98,9.63Z"/>
              </g>
              <g>
                <path class="cls-43" d="M1145.89,488.6v72.41c0,5.41-3.17,10.1-7.76,12.26-1.76,.87-3.74,1.33-5.84,1.33-7.51,0-13.61-6.08-13.61-13.59v-72.41c0-7.51,6.1-13.61,13.61-13.61,2.1,0,4.08,.46,5.84,1.33,1.41,.65,2.69,1.56,3.78,2.65,2.46,2.46,3.98,5.88,3.98,9.63Z"/>
                <path class="cls-32" d="M1145.89,488.6v72.41c0,5.41-3.17,10.1-7.76,12.26-4.59-2.16-7.78-6.83-7.78-12.26v-72.41c0-3.76,1.51-7.17,3.98-9.63,1.09-1.09,2.38-2,3.8-2.65,1.41,.65,2.69,1.56,3.78,2.65,2.46,2.46,3.98,5.88,3.98,9.63Z"/>
              </g>
              <g>
                <path class="cls-43" d="M1194.31,488.6v72.41c0,5.41-3.17,10.1-7.76,12.26-1.76,.87-3.74,1.33-5.84,1.33-7.51,0-13.61-6.08-13.61-13.59v-72.41c0-7.51,6.1-13.61,13.61-13.61,2.1,0,4.08,.46,5.84,1.33,1.41,.65,2.69,1.56,3.78,2.65,2.46,2.46,3.98,5.88,3.98,9.63Z"/>
                <path class="cls-32" d="M1194.31,488.6v72.41c0,5.41-3.17,10.1-7.76,12.26-4.59-2.16-7.78-6.83-7.78-12.26v-72.41c0-3.76,1.51-7.17,3.98-9.63,1.09-1.09,2.38-2,3.8-2.65,1.41,.65,2.69,1.56,3.78,2.65,2.46,2.46,3.98,5.88,3.98,9.63Z"/>
              </g>
              <g>
                <path class="cls-43" d="M1242.73,488.6v72.41c0,5.41-3.17,10.1-7.76,12.26-1.76,.87-3.74,1.33-5.84,1.33-7.51,0-13.61-6.08-13.61-13.59v-72.41c0-7.51,6.1-13.61,13.61-13.61,2.1,0,4.08,.46,5.84,1.33,1.41,.65,2.69,1.56,3.78,2.65,2.46,2.46,3.98,5.88,3.98,9.63Z"/>
                <path class="cls-32" d="M1242.73,488.6v72.41c0,5.41-3.17,10.1-7.76,12.26-4.59-2.16-7.78-6.83-7.78-12.26v-72.41c0-3.76,1.51-7.17,3.98-9.63,1.09-1.09,2.38-2,3.8-2.65,1.41,.65,2.69,1.56,3.78,2.65,2.46,2.46,3.98,5.88,3.98,9.63Z"/>
              </g>
            </g>
            <rect class="cls-12" x="1334.2" y="356.54" width="40.08" height="75.39" rx="9.92" ry="9.92"/>
            <g>
              <rect class="cls-12" x="1254.71" y="355.33" width="40.08" height="301.07" rx="9.92" ry="9.92" transform="translate(515.87 -636.49) rotate(34.76)"/>
              <rect class="cls-12" x="1081.43" y="415.18" width="40.08" height="274.99" rx="9.92" ry="9.92" transform="translate(2158.53 -80.81) rotate(122.42)"/>
              <circle class="cls-47" cx="1199.32" cy="614.55" r="29.77"/>
              <rect class="cls-4" x="954.58" y="449.73" width="15.46" height="51.82" rx="3.83" ry="3.83" transform="translate(138 1163.24) rotate(-66.13)"/>
              <rect class="cls-4" x="961.79" y="477.64" width="15.46" height="51.82" rx="3.83" ry="3.83" transform="translate(465.97 1473.07) rotate(-90)"/>
              <g>
                <rect class="cls-4" x="1011.32" y="435.27" width="15.46" height="55.43" rx="3.83" ry="3.83" transform="translate(129.86 -216.84) rotate(12.97)"/>
                <rect class="cls-4" x="1005.11" y="398.65" width="15.46" height="51.82" rx="3.83" ry="3.83" transform="translate(-64.04 640) rotate(-34.06)"/>
              </g>
              <rect class="cls-4" x="956.67" y="398.56" width="15.46" height="89.94" rx="3.83" ry="3.83" transform="translate(19.67 927.56) rotate(-51.83)"/>
              <circle class="cls-47" cx="999.29" cy="487.78" r="29.77"/>
            </g>
          </g>
          <g>
            <path class="cls-15" d="M694.41,381.23H391.85c-5.26,0-9.53,3.18-9.53,7.11v110.9c0,3.93,4.27,7.11,9.53,7.11h302.55c5.26,0,9.53-3.18,9.53-7.11v-110.9c0-3.93-4.27-7.11-9.53-7.11Z"/>
            <path class="cls-26" d="M415.02,408.19h20.17"/>
            <path class="cls-27" d="M479.59,408.19h187.84"/>
            <path class="cls-26" d="M415.02,441.17h20.17"/>
            <path class="cls-27" d="M479.59,441.17h87.46"/>
            <path class="cls-26" d="M415.02,474.72h20.17"/>
            <path class="cls-27" d="M479.59,474.72h150.4"/>
          </g>
          <g>
            <path class="cls-31" d="M697.32,300.02h-52.37c-3.65,0-6.62,2.96-6.62,6.62v52.37c0,3.66,2.96,6.62,6.62,6.62h52.37c3.66,0,6.62-2.96,6.62-6.62v-52.37c0-3.66-2.96-6.62-6.62-6.62Z"/>
            <path class="cls-7" d="M692.49,323.97c-.04-1.78-.37-3.54-1-5.2-.55-1.43-1.4-2.72-2.48-3.81-1.08-1.08-2.37-1.92-3.8-2.47-1.67-.63-3.43-.97-5.21-1-2.3-.11-3.02-.14-8.85-.14s-6.56,.03-8.85,.13c-1.78,.04-3.54,.37-5.21,1-1.42,.55-2.72,1.39-3.8,2.48-1.08,1.08-1.92,2.37-2.48,3.8-.62,1.67-.96,3.43-.99,5.21-.11,2.29-.14,3.02-.14,8.85s.03,6.56,.13,8.85c.03,1.78,.37,3.54,.99,5.21,.56,1.42,1.4,2.72,2.48,3.8,1.08,1.08,2.38,1.92,3.81,2.48,1.66,.62,3.42,.96,5.2,.99,2.29,.1,3.02,.13,8.85,.13s6.56-.03,8.85-.13c1.78-.03,3.54-.37,5.2-.99,1.43-.56,2.73-1.4,3.81-2.48,1.08-1.08,1.92-2.38,2.47-3.8,.63-1.67,.97-3.43,1-5.21,.1-2.29,.13-3.02,.13-8.85s0-6.56-.11-8.85Zm-3.87,17.53c0,1.36-.26,2.71-.74,3.98-.35,.93-.9,1.77-1.6,2.47-.7,.7-1.54,1.25-2.47,1.61-1.28,.47-2.62,.72-3.98,.74-2.27,.1-2.95,.12-8.67,.12s-6.42-.02-8.67-.12c-1.37-.02-2.71-.27-3.99-.74-.93-.34-1.77-.89-2.46-1.6-.71-.7-1.26-1.54-1.6-2.47-.48-1.27-.73-2.62-.74-3.98-.1-2.27-.13-2.94-.13-8.67s.03-6.42,.13-8.67c.01-1.36,.26-2.71,.74-3.99,.34-.93,.89-1.77,1.61-2.46,.69-.71,1.53-1.26,2.46-1.6,1.28-.48,2.62-.73,3.98-.74,2.27-.1,2.95-.13,8.67-.13s6.42,.03,8.67,.13c1.37,.01,2.71,.26,3.99,.74,.93,.34,1.77,.89,2.46,1.6,.71,.69,1.26,1.53,1.6,2.46,.48,1.28,.73,2.63,.74,3.99,.1,2.26,.13,2.94,.13,8.67s-.03,6.4-.13,8.66Z"/>
            <path class="cls-7" d="M678.94,325.03c-2.06-2.07-4.87-3.23-7.79-3.23-2.18,0-4.32,.64-6.13,1.85-1.81,1.22-3.23,2.94-4.06,4.95-.83,2.02-1.05,4.23-.63,6.37,.43,2.14,1.48,4.11,3.02,5.65,1.54,1.54,3.51,2.59,5.65,3.02,2.14,.42,4.35,.2,6.37-.63,2.01-.84,3.73-2.25,4.95-4.06,1.21-1.82,1.85-3.95,1.85-6.13,0-2.92-1.16-5.73-3.23-7.79Zm-2.73,12.85c-1.35,1.34-3.17,2.09-5.06,2.09-1.42,0-2.8-.41-3.98-1.2-1.17-.79-2.09-1.9-2.63-3.21s-.68-2.75-.41-4.13c.28-1.39,.96-2.67,1.96-3.67s2.27-1.68,3.66-1.95c1.39-.28,2.83-.14,4.13,.4,1.31,.54,2.43,1.46,3.21,2.64,.79,1.17,1.21,2.56,1.21,3.97,0,1.9-.75,3.72-2.09,5.06Z"/>
            <path class="cls-7" d="M685.18,321.36c0,.51-.15,1.01-.43,1.43-.28,.42-.68,.75-1.15,.95-.47,.2-.99,.25-1.49,.15-.5-.1-.96-.34-1.32-.7-.36-.36-.61-.82-.71-1.32-.1-.5-.05-1.02,.15-1.49,.19-.47,.52-.87,.95-1.15,.42-.28,.92-.43,1.43-.43,.68,0,1.34,.27,1.82,.75s.75,1.14,.75,1.82Z"/>
          </g>
          <g>
            <path class="cls-31" d="M618.8,300.02h-52.37c-3.65,0-6.62,2.96-6.62,6.62v52.37c0,3.66,2.96,6.62,6.62,6.62h52.37c3.66,0,6.62-2.96,6.62-6.62v-52.37c0-3.66-2.96-6.62-6.62-6.62Z"/>
            <path class="cls-7" d="M599.12,321.44h3.74v-6.51c-1.81-.2-3.63-.3-5.45-.29-5.39,0-9.08,3.39-9.08,9.62v5.74h-5.95v7.28h5.95v18.32h7.29v-18.32h5.71l.91-7.28h-6.62v-5.02c0-2.1,.57-3.54,3.5-3.54h0Z"/>
          </g>
          <g>
            <path class="cls-38" d="M464.3,357.09c38.98,0,70.58-31.6,70.58-70.58s-31.6-70.58-70.58-70.58-70.58,31.6-70.58,70.58,31.6,70.58,70.58,70.58Z"/>
            <path class="cls-16" d="M489.46,284.8c0-4.57-1.24-9.05-3.59-12.96-2.35-3.91-5.72-7.11-9.75-9.26-4.03-2.15-8.57-3.15-13.13-2.92-4.56,.23-8.97,1.7-12.76,4.25-3.79,2.55-6.81,6.08-8.75,10.21-1.93,4.14-2.71,8.72-2.24,13.26,.47,4.54,2.16,8.87,4.9,12.52,2.74,3.65,6.42,6.49,10.65,8.21v8.26h18.97v-8.26c4.64-1.89,8.61-5.11,11.4-9.27,2.79-4.15,4.29-9.05,4.29-14.05h0Z"/>
            <path class="cls-16" d="M454.8,316.37h19.03v4.05c0,1.72-.68,3.36-1.9,4.58-1.21,1.21-2.86,1.9-4.58,1.9h-6.09c-1.72,0-3.36-.68-4.58-1.9-1.21-1.21-1.9-2.86-1.9-4.58v-4.05h0Z"/>
            <path class="cls-16" d="M460.03,316.37v-28.9c0-.69-.28-1.36-.76-1.84-.49-.49-1.15-.76-1.84-.76h-.08c-.69,0-1.35,.27-1.84,.76-.49,.49-.76,1.15-.76,1.84h0c0,.34,.07,.68,.2,1,.13,.32,.32,.6,.57,.85s.53,.43,.85,.57c.32,.13,.65,.2,1,.2h13.88c.34,0,.68-.07,1-.2,.32-.13,.6-.32,.85-.57s.43-.53,.57-.85c.13-.32,.2-.65,.2-1h0c0-.69-.27-1.36-.76-1.84-.49-.49-1.15-.76-1.84-.76h-.23c-.69,0-1.35,.27-1.84,.76-.49,.49-.76,1.15-.76,1.84v28.9"/>
            <path class="cls-16" d="M464.32,246.12v6.46"/>
            <path class="cls-16" d="M441.03,252.35l3.23,5.6"/>
            <path class="cls-16" d="M423.97,269.38l5.59,3.23"/>
            <path class="cls-16" d="M504.63,269.44l-5.59,3.23"/>
            <path class="cls-16" d="M487.59,252.38l-3.23,5.6"/>
          </g>
          <g>
            <path class="cls-53" d="M908.22,77.95h-317.46c-11.34,0-20.54,9.19-20.54,20.54V255.41c0,11.34,9.19,20.54,20.54,20.54h317.46c11.34,0,20.54-9.19,20.54-20.54V98.49c0-11.34-9.19-20.54-20.54-20.54Z"/>
            <path class="cls-17" d="M599.43,221.94s23.79-2.51,38.1,8.2c19.19,14.36,34.64,25.45,55.04-9.85,22.35-38.68,25.86-52.18,42.16-52.34,20.92-.2,29.09,55.57,67.67,59.51,38.58,3.94,64.81-2.36,64.81-2.36"/>
            <path class="cls-17" d="M599.43,110.63h55.44"/>
            <path class="cls-19" d="M599.43,136.5h114.58"/>
          </g>
          <g>
            <path class="cls-52" d="M539.29,80.8h-150.8c-3.4,0-6.16,2.76-6.16,6.16v106.4c0,3.4,2.76,6.16,6.16,6.16h150.8c3.4,0,6.16-2.76,6.16-6.16V86.97c0-3.4-2.76-6.16-6.16-6.16Z"/>
            <path class="cls-21" d="M494.96,147.29c0,6.14-1.82,12.15-5.24,17.26-3.41,5.11-8.27,9.09-13.94,11.44-5.68,2.35-11.92,2.97-17.95,1.77-6.03-1.2-11.56-4.16-15.91-8.5-4.34-4.34-7.3-9.88-8.5-15.91-1.2-6.03-.58-12.27,1.77-17.95,2.35-5.68,6.33-10.53,11.44-13.94,5.11-3.41,11.12-5.24,17.26-5.24"/>
            <path class="cls-20" d="M469.68,110.29c8.24,0,16.14,3.27,21.97,9.1,5.83,5.83,9.1,13.73,9.1,21.97"/>
            <path class="cls-18" d="M396.63,177.16h18.18"/>
            <path class="cls-25" d="M396.63,187.34h37.58"/>
            <path class="cls-18" d="M500.74,177.26h18.18"/>
            <path class="cls-25" d="M500.74,187.44h37.58"/>
          </g>
          <g>
            <path class="cls-31" d="M905.85,300.02h-159.86c-10.77,0-19.51,8.73-19.51,19.51v173.08c0,10.77,8.73,19.51,19.51,19.51h159.86c10.77,0,19.51-8.73,19.51-19.51v-173.08c0-10.77-8.73-19.51-19.51-19.51Z"/>
            <path class="cls-24" d="M750.7,459.44h51.25"/>
            <path class="cls-22" d="M750.7,483.36h105.91"/>
            <path class="cls-28" d="M751.83,360.15h26.5c1.95,0,3.86,.51,5.55,1.48,1.69,.97,3.09,2.36,4.08,4.04l25.66,43.88c1.01,1.72,2.46,3.15,4.21,4.12,1.75,.97,3.72,1.46,5.72,1.4,2-.05,3.94-.64,5.64-1.71s3.07-2.56,3.98-4.34l15.86-30.81c.93-1.8,2.33-3.32,4.06-4.38,1.73-1.07,3.71-1.64,5.74-1.66l46.55-.5"/>
            <path class="cls-29" d="M751.83,407.35h13.03c2.94,0,5.77-1.17,7.86-3.24l60.25-59.84c2.09-2.07,4.91-3.24,7.86-3.24h17.64c2.52,0,4.97,.85,6.94,2.42,1.97,1.57,3.36,3.76,3.93,6.21l9.26,39.91c.57,2.46,1.95,4.64,3.93,6.21,1.97,1.57,4.42,2.42,6.94,2.42h15.91"/>
          </g>
          <g>
            <g>
              <path class="cls-49" d="M431.52,456.35l129.37-80.18c7.81,.14,15.43-2.43,21.57-7.26,9.04-6.56,19.89-9.3,29.07-15.67,14.95-10.32,20.03-29.72,24.04-47.39,.97-3.33,1.3-6.82,.98-10.28-.39-3.51-2.73-6.5-6.06-7.72-4.11-.38-8.2,.89-11.37,3.53-12.76,7.63-27.58,10.93-41.93,13.95-.89,.3-1.86,.3-2.75,0-1.72-.84-1.49-3.39-.61-5.12,.89-1.72,2.19-3.53,1.68-5.44-.8-1.91-2.89-2.93-4.89-2.37-1.94,.61-3.65,1.79-4.89,3.39-6.89,7.44-10.67,17.35-16.21,25.67-4.24,6.8-7.98,13.91-11.18,21.25l-125.32,70.23s-36.76,55.02,18.5,43.39Z"/>
              <path class="cls-39" d="M277.13,260.55l118.98,151.75,141.21-74.41,12.53,44.04s-138.13,101.71-156.3,101.71c-29.07,0-84.32-51.16-84.32-51.16l-32.1-171.94Z"/>
              <path class="cls-39" d="M321.25,432.95c-1.4,2.11-2.76,4.29-4.05,6.56-24.03,42.21-27.05,109.66-24.99,161.41,.18,4.31,.38,8.54,.62,12.6H116.47c.96-2.91,2.11-6.42,3.42-10.43,.24-.71,.49-1.42,.71-2.18,1.56-4.69,3.27-9.96,5.11-15.65v-.02c.13-.42,.27-.84,.4-1.29t.02-.04c7.6-23.25,17.01-52.73,23.96-75.67,13.6-44.88-29.17-151.83-29.17-151.83l-42.26,34.43-5.25,4.27-15.67,12.78s-32.37-5.8-48.64-19.05h-.02c-.47-.4-.91-.78-1.36-1.18l-.02-.02c-7.89-7.05-11.11-16.09-2.98-27.39,24.36-33.77,116.51-99.14,136.18-106.97,15.05-5.98,42.88-12.56,55.09-15.32h.02c1.69-.38,3.07-.69,4.07-.91,.76-.18,1.31-.29,1.62-.33,.2-.07,.31-.09,.31-.09,.4,.71,.82,1.38,1.27,2.02,0,0,0,.02,.02,.04,2.58,3.78,5.58,6.45,8.8,8.27,14.92,8.34,34.26-1.78,34.26-1.78,.85,.02,1.69,.09,2.56,.24,.04-.02,.09-.02,.13,.02,.69,.07,1.38,.2,2.09,.38,.6,.13,1.18,.29,1.78,.47l.27,.07c.11,.04,.22,.09,.31,.13,7.45,2.33,15.61,7.87,23.85,15.29h.02c.91,.82,1.8,1.65,2.71,2.53l.02,.02c18.07,17.07,36.57,42.7,50.48,64.38,0,.02,.02,.02,.02,.04,8.98,13.98,16.03,26.3,19.83,33.68,13.6,26.41-13.56,47.24-29.21,70.49Z"/>
              <path class="cls-7" d="M215.81,613.52h-87.27c-2.02-2.56-5.18-4.16-7-6.91-.69-1.13-1.24-2.29-1.64-3.51-.24-.71-.44-1.44-.58-2.18-1.16-6.02,1.02-12.36,6-16.34,.27-.22,.53-.42,.8-.62,.02-.02,.04-.02,.07-.04,13.63,10.54,27.28,14.14,41.77,17.01,11.07,2.18,22.63,3.93,35.1,8.02,4.27,1.49,8.51,3,12.76,4.58Z"/>
              <path class="cls-11" d="M298.94,139.08c2.24,10.32,1.58,21.21,4.98,31.21,3.5,9.68,10.04,17.99,18.63,23.67,1.07,.74,2.33,1.67,2.33,3.02-.02,.52-.17,1.03-.42,1.49-5.02,10.51-15.84,17.01-27.49,16.51-1.69-.29-3.42-.14-5.03,.42-1.21,.74-2.29,1.68-3.17,2.79-5.6,4.91-13.41,6.43-20.45,4-6.82-2.5-13.13-6.2-18.63-10.93-1.35-.98-2.8-2.23-2.75-3.91,.12-1.07,.56-2.07,1.26-2.88,8.74-11.59,14.53-25.12,16.86-39.44,1.49-12.05-.7-24.7,3.54-36.09,8.43-22.74,26.97-5.3,30.33,10.14Z"/>
              <path class="cls-42" d="M298.94,139.08c2.24,10.32,1.58,21.21,4.98,31.21,3.5,9.68,10.04,17.99,18.63,23.67,1.07,.74,2.33,1.67,2.33,3.02-.02,.52-.17,1.03-.42,1.49-5.02,10.51-15.84,17.01-27.49,16.51-1.69-.29-3.42-.14-5.03,.42-1.21,.74-2.29,1.68-3.17,2.79-5.6,4.91-13.41,6.43-20.45,4-6.82-2.5-13.13-6.2-18.63-10.93-1.35-.98-2.8-2.23-2.75-3.91,.12-1.07,.56-2.07,1.26-2.88,8.74-11.59,14.53-25.12,16.86-39.44,1.49-12.05-.7-24.7,3.54-36.09,8.43-22.74,26.97-5.3,30.33,10.14Z"/>
              <path class="cls-23" d="M241.36,215.53c2.14,12.74,4.29,25.63,11.13,36.23,0,0,.23,.28,.33,.47-1.3-5.16-7.87-30.14-9.32-33.07-.62-1.26-1.33-2.48-2.14-3.63Z"/>
              <path class="cls-49" d="M199.66,181.68c0,2.98,0,5.91,.23,8.88,.23,6.19,.37,12.37,.51,18.6,0,2.84,0,5.67,.23,8.51-.04,9.54,.78,19.07,2.47,28.46,3.36,16.24,11.64,31.06,23.71,42.46,7.38,6.52,15.34,12.37,23.76,17.49,4.64,3.36,9.85,5.87,15.37,7.39,5.68,1.47,11.71-.32,15.65-4.65,4.19-5.26,3.03-13.02,.23-19.16-6.52-14.42-20.31-24.18-29.02-37.21h0s-.23-.28-.33-.47c-6.85-10.6-8.99-23.25-11.13-36.23-3.07-18.6-6.15-36.6-23.29-47.16-3.9-2.91-9.09-3.45-13.51-1.4-4.66,2.7-5.03,9.07-4.89,14.46Z"/>
              <path class="cls-49" d="M280.39,108.33c10.45,22.85,5.32,49.49,0,74.04-2.09,9.48-4.42,19.81-10.87,27.35-10.45,12.13-29.53,13.89-44.21,7.44-22.51-9.86-34.62-34.03-43.78-56.88-7.69-18.96-14.67-38.82-15.67-59.35-1-20.52,4.75-42.19,19.56-56.5,5.48-5.59,12.45-9.51,20.09-11.28,12.58-2.61,25.36,2.46,37.04,7.77,14.24,6.4,28.49,13.84,37.42,26.45,14.01,19.72,10.97,46.41,7.41,70.34l-6.98-29.39Z"/>
              <path class="cls-42" d="M90.37,182.98c6.97,24.08,32.18,37.96,56.31,31,3.42-.99,6.71-2.37,9.8-4.12,1.2-.97,2.75-1.41,4.29-1.21,1.08,.47,2.02,1.22,2.7,2.19,6.1,6.28,16.68,4.88,24.64,1.26,2.16-1.28,4.62-1.94,7.13-1.91,2.05,.46,3.98,1.36,5.64,2.65,9.31,5.99,20.3,8.85,31.35,8.19-11.93-2.23-20.68-12.14-27.95-21.72-11.88-15.44-15.23-30.09-20.08-48.88-4.85-18.79-10.62-42.23,1.58-57.3,8.07-9.85,18.76-17.23,30.84-21.3,2.44-.74,5.06-.61,7.41,.37,2.05,.79,4.01,2.14,6.62,3.35,6.06,2.64,12.72,3.62,19.29,2.84,2.12-.44,4.31-.44,6.43,0,2.26,.87,4.24,2.33,5.73,4.23,6.98,7.24,13.09,15.26,18.22,23.9,3.68,6.16,6.44,12.81,8.2,19.77,2.38,9.3,1.16,19.9,7.36,27.3,.71,1.09,1.84,1.83,3.12,2.05,1.72,0,3.17-1.26,4.29-2.6,18.63-22.74,20.27-55.53,11.65-83.71-1.44-5.07-3.39-9.97-5.82-14.65-7.54-13.03-19.26-23.14-33.26-28.69-13.97-5.45-28.96-7.81-43.93-6.93C222.58,3.28,201.71-1.61,183.54,.44c-22.92,2.46-43.81,14.24-57.77,32.55-13.89,18.81-17.34,43.35-9.18,65.25,2.98,7.53,7.41,14.51,10.25,22.14,6.5,17.72,4.07,37.48-6.52,53.11-3.16,5.03-7.71,9.05-13.09,11.58-5.57,2.5-12.08,1.7-16.86-2.09Z"/>
              <path class="cls-49" d="M136.96,612.28c-.89,.58-1.98,.93-3.07,1.24h-39.01c-.56-4.16-1.27-8.34-2.42-12.49,0-.04-.02-.07-.02-.11-.91-3.22-2.56-6.49-3.85-9.67-.13-.31-.27-.6-.38-.91l-3.62-9.29-.22-.56-14.07-36.06-48.17-123.11c-.62-1.58-8.6-21.14-13-32.48h-.02c-1.78-4.67-2.98-7.96-2.82-8.02,25.79-12.78,60.46,6.36,67.16,14.29l.07,.07c7.05,8.89,8.85,26.9,11.69,37.46,6.34,23.52,12.25,47.19,18.07,70.82,4.07,16.34,8.07,32.7,11.98,49.06,.98,4.07,1.87,8.11,2.84,12.09,.16,.64,.31,1.27,.49,1.89,.8,3.09,1.67,6.09,2.73,9.03v.02c1.11,3.11,2.4,6.11,4,9.03,.13,.22,.27,.44,.4,.67v.02c1.76,3.07,3.89,6.02,6.49,8.83,2.25,2,4.2,4.31,5.82,6.82,.36,.53,.67,1.07,.98,1.6,1.73,3.33,.87,7.42-2.04,9.76Z"/>
              <path class="cls-46" d="M264.42,308.78c.98,.51,2.14,1.21,2.19,2.37,0,2.05-3.07,2.14-4.98,1.4-8.99-3.44-17.7-7.58-26.04-12.37-2.14-1.21-4.66-2.51-6.94-1.3-1.35,1.03-2.35,2.46-2.84,4.09-2.64,5.74-6.9,10.59-12.25,13.95l-10.11-25.49c-2.76-6.21-4.75-12.74-5.92-19.44-.56-4.65-.33-9.3-1.16-13.63-1.25-4.26-2.03-8.64-2.33-13.07,1.12-26.32,29.68,16.46,33.36,22.14,9.97,15.58,20.08,32.42,37.04,41.34Z"/>
              <path class="cls-46" d="M257.71,259.48c4.44,8.5,7.99,17.43,10.62,26.65,2.59,9.29,2.31,19.14-.79,28.28,7.33-.48,14.17-3.82,19.05-9.3,3.41,5,5.94,10.53,7.5,16.37,2.33-12.79,4.24-27.39-3.82-37.62-3.35-4.28-8.11-7.26-11.55-11.44-2.56-3.12-4.33-6.74-6.62-10.05-4.88-6.96-11.5-12.52-19.19-16.14,.54,4.73,2.18,9.27,4.8,13.25Z"/>
              <polygon class="cls-39" points="75.78 378.63 120 565.92 74.71 585.26 2.5 372.22 75.78 378.63"/>
              <polygon class="cls-7" points="121.07 563.22 124.28 574.1 80.63 595.08 77.42 583.77 121.07 563.22"/>
              <polygon class="cls-7" points="537.14 337.75 541.47 335.06 557.91 377.84 542.03 386.73 532.01 340.45 537.14 337.75"/>
            </g>
            <ellipse class="cls-1" cx="261.38" cy="123.91" rx="6.6" ry="7.33" transform="translate(-7.21 16.52) rotate(-3.57)"/>
            <ellipse class="cls-1" cx="221.75" cy="126.73" rx="6.6" ry="7.33" transform="translate(-7.46 14.06) rotate(-3.57)"/>
            <path class="cls-2" d="M223.23,104.8s-6.02,4.14-11.14,10.33c-5.12,6.19-7.23,6.39-8.85,4.41-2.39-2.62,1.31-8.68,10.73-14.57,8.72-5.82,12.58-2.62,9.25-.17Z"/>
            <path class="cls-2" d="M269.83,113.86c1-2.96-3.82-6.94-13.03-9l13.03,9Z"/>
            <path class="cls-5" d="M239.8,129.62s.16,17.25,.82,21.42c.24,4.19,4.09,5.23,8.73,5.39,5.03-.29,9.5-3.08,4.15-8.24-5.35-5.16-8.08-8.79-9.19-13.36-1.11-4.57-1.25-7.08-2.95-7.4-2.12-.3-1.6,1.36-1.56,2.19Z"/>
            <path class="cls-6" d="M264.48,168.25s-7.51,6.02-19.59,5.17c-11.34-.17-21.6-7.48-21.6-7.48,0,0,10.15,20.06,21.46,19.53,10.63,.21,19.73-17.22,19.73-17.22Z"/>
          </g>
        </g>
      </g>
    </g>
  </g>
</svg>