<?xml version="1.0" encoding="UTF-8"?>
<svg xmlns="http://www.w3.org/2000/svg" viewBox="0 0 1162.94 1119.89">
  <defs>
    <style>
      .cls-1, .cls-2 {
        fill: #fff;
      }

      .cls-3 {
        fill: #ffe69c;
      }

      .cls-3, .cls-4, .cls-5, .cls-6, .cls-2, .cls-7, .cls-8, .cls-9, .cls-10, .cls-11, .cls-12 {
        isolation: isolate;
      }

      .cls-13 {
        stroke: #f3e900;
      }

      .cls-13, .cls-14, .cls-15 {
        stroke-miterlimit: 10;
        stroke-width: 2px;
      }

      .cls-13, .cls-14, .cls-15, .cls-16 {
        fill: none;
      }

      .cls-4 {
        fill: #15b57e;
      }

      .cls-17 {
        fill: #f3e900;
      }

      .cls-5 {
        fill: #ffcc41;
      }

      .cls-6 {
        fill: #ff5757;
      }

      .cls-14 {
        stroke: #fff;
      }

      .cls-7 {
        fill: #048da3;
      }

      .cls-15 {
        stroke: #000;
      }

      .cls-8 {
        fill: #9471fb;
      }

      .cls-9 {
        fill: #d4c6fd;
      }

      .cls-10 {
        fill: #04304a;
      }

      .cls-11 {
        fill: #29d1d1;
      }

      .cls-12 {
        fill: #31a3fc;
      }

      .cls-18 {
        fill: #231f20;
      }
    </style>
  </defs>
  <g id="Layer_1" data-name="Layer 1"/>
  <g id="Layer_2" data-name="Layer 2">
    <g id="Layer_1-2" data-name="Layer 1">
      <rect class="cls-4" x="176.29" y="934.43" width="31.04" height="31.04" transform="translate(-758.14 1141.76) rotate(-90)"/>
      <path class="cls-5" d="M326.88,515.12c67.1,0,122.62-55.23,131.95-127.12h471.61v294.52h-118.77v118.77H301.23v-288.91c8.31,1.8,16.87,2.74,25.66,2.74Z"/>
      <path class="cls-11" d="M301.23,512.38v288.91h215.93V388h-40.3c-10.4,71.89-72.26,127.12-147.05,127.12-9.79,0-19.33-.94-28.59-2.74Z"/>
      <path class="cls-8" d="M255.97,554.31v258.3c71.34,0,129.17-57.83,129.17-129.15s-57.83-129.15-129.17-129.15Z"/>
      <path class="cls-12" d="M301.23,388v124.38c9.26,1.8,18.8,2.74,28.59,2.74,74.78,0,136.64-55.23,147.05-127.12h-175.63Z"/>
      <path class="cls-8" d="M181.23,366.52c0,72.28,51.62,132.53,120,145.86v-124.38h175.63c1.02-7,1.56-14.19,1.56-21.48,0-82.05-66.53-148.58-148.6-148.58s-148.58,66.53-148.58,148.58Z"/>
      <path class="cls-12" d="M517.16,594.65c0,114.12,92.52,206.63,206.65,206.63,31.43,0,61.21-7.02,87.87-19.58v-99.19h99.19c12.55-26.66,19.58-56.43,19.58-87.87,0-114.14-92.52-206.65-206.63-206.65s-206.65,92.52-206.65,206.65Z"/>
      <rect x="930.45" y="388" width="105.95" height="3.49" transform="translate(1966.84 779.49) rotate(180)"/>
      <path class="cls-12" d="M1036.43,0V253.05c69.87,0,126.51-56.66,126.51-126.53S1106.3,0,1036.43,0Z"/>
      <path class="cls-5" d="M909.9,126.53c0,69.87,56.64,126.53,126.53,126.53V0c-69.89,0-126.53,56.66-126.53,126.53Z"/>
      <rect x="899.73" y="251.14" width="273.39" height="3.84" transform="translate(783.37 1289.48) rotate(-90)"/>
      <g>
        <path class="cls-10" d="M1036.63,225.97h.05c8.98-.36,17.6-1.58,25.65-3.63l-.64-2.51c-7.88,2.01-16.31,3.21-25.06,3.55v2.59Zm-25.74-3.38l.67-2.5c-8.16-2.19-16.02-5.45-23.35-9.69l-1.3,2.24c7.53,4.36,15.59,7.71,23.97,9.95Zm75.58-9.74c7.66-4.23,14.65-9.48,20.76-15.58l-1.83-1.83c-5.95,5.94-12.74,11.03-20.19,15.15l1.25,2.27Zm-120.13-16.03l1.83-1.83c-5.99-5.99-11.17-12.74-15.4-20.05l-2.24,1.3c4.34,7.51,9.66,14.44,15.81,20.59Zm156.52-20.29c4.18-7.5,7.39-15.62,9.54-24.14l-2.51-.63c-2.1,8.3-5.23,16.21-9.3,23.52l2.26,1.26h0Zm-182.27-24.28l2.5-.67c-2.17-8.13-3.27-16.56-3.27-25.06v-.23h-2.59v.22c0,8.74,1.13,17.39,3.36,25.74Zm194.27-25.64l.75-.04c0-8.72-1.06-17.35-3.15-25.7l-2.51,.63c2.04,8.14,3.08,16.56,3.08,25.04l1.84,.06Zm-191.71-25.38c2.2-8.16,5.47-16.01,9.73-23.33l-2.24-1.3c-4.37,7.52-7.73,15.58-9.99,23.96l2.5,.67Zm177.55-23.26l2.26-1.25c-4.25-7.67-9.49-14.66-15.58-20.77l-1.83,1.83c5.92,5.94,11.01,12.74,15.14,20.2Zm-152.38-20.08c6-5.98,12.76-11.15,20.08-15.37l-1.29-2.24c-7.52,4.33-14.45,9.64-20.62,15.77l1.83,1.83Zm117.09-15.33l1.26-2.26c-7.4-4.11-15.52-7.32-24.12-9.54l-.65,2.51c8.39,2.16,16.3,5.29,23.51,9.3Zm-73.64-9.68c8.08-2.14,16.46-3.23,24.9-3.23h.12l.11-2.58h-.19c-8.71,0-17.31,1.11-25.6,3.31l.66,2.5Z"/>
        <circle class="cls-8" cx="1036.68" cy="126.52" r="15.35"/>
      </g>
      <polygon class="cls-4" points="811.68 801.29 811.68 920.05 1049.21 920.05 1049.21 682.52 930.44 682.52 930.44 801.29 811.68 801.29"/>
      <rect class="cls-1" x="811.68" y="847.15" width="237.53" height="2.76" transform="translate(1860.89 1697.06) rotate(180)"/>
      <rect class="cls-1" x="811.68" y="861.61" width="237.53" height="2.76" transform="translate(1860.89 1725.98) rotate(180)"/>
      <rect class="cls-1" x="811.68" y="876.08" width="237.53" height="2.76" transform="translate(1860.89 1754.91) rotate(180)"/>
      <rect class="cls-1" x="811.68" y="890.54" width="237.53" height="2.76" transform="translate(1860.89 1783.83) rotate(180)"/>
      <rect class="cls-1" x="811.68" y="905" width="237.53" height="2.76" transform="translate(1860.89 1812.76) rotate(180)"/>
      <circle class="cls-1" cx="996.77" cy="848.53" r="3.62"/>
      <circle class="cls-1" cx="947.66" cy="862.99" r="3.62"/>
      <circle class="cls-1" cx="963.72" cy="877.45" r="3.62"/>
      <circle class="cls-1" cx="898.13" cy="891.92" r="3.62"/>
      <circle class="cls-1" cx="985.39" cy="906.38" r="3.62"/>
      <rect class="cls-10" x="930.44" y="682.52" width="118.77" height="118.77"/>
      <path class="cls-10" d="M811.68,682.52v99.19c43.51-20.46,78.73-55.68,99.19-99.19h-99.19Z"/>
      <path class="cls-3" d="M811.68,781.71v19.58h118.77v-118.77h-19.58c-20.46,43.51-55.68,78.73-99.19,99.19Z"/>
      <rect x="382.76" y="850.97" width="102.84" height="3.49" transform="translate(-418.53 1286.89) rotate(-90)"/>
      <path class="cls-12" d="M320.9,980.59c38.46,0,69.64,31.18,69.64,69.65s-31.18,69.64-69.64,69.64-69.65-31.18-69.65-69.64,31.18-69.65,69.65-69.65Z"/>
      <path class="cls-5" d="M320.9,980.59c38.46,0,69.64,31.18,69.64,69.65H251.24c0-38.47,31.18-69.65,69.65-69.65Z"/>
      <rect x="320.89" y="902.08" width="113.29" height="4.27" transform="translate(755.07 1808.43) rotate(180)"/>
      <circle class="cls-8" cx="434.18" cy="904.22" r="8.65"/>
      <rect x="247.78" y="975.52" width="145.97" height="3.49" transform="translate(-656.5 1298.03) rotate(-90)"/>
      <circle class="cls-8" cx="320.76" cy="904.27" r="8.65"/>
      <circle class="cls-8" cx="320.76" cy="1050.51" r="26.7"/>
      <g>
        <path class="cls-10" d="M375.64,1050.36v.03c-.2,4.95-.87,9.69-2,14.12l-1.38-.35c1.11-4.34,1.77-8.98,1.96-13.79h1.42Zm-1.86-14.17l-1.38,.37c-1.2-4.49-3-8.82-5.33-12.85l1.23-.71c2.4,4.14,4.24,8.58,5.48,13.2Zm-5.36,41.61c-2.33,4.22-5.22,8.06-8.58,11.43l-1.01-1.01c3.27-3.27,6.07-7.01,8.34-11.11l1.25,.69Zm-8.82-66.13l-1.01,1.01c-3.3-3.3-7.01-6.15-11.04-8.48l.71-1.23c4.13,2.39,7.95,5.32,11.33,8.7Zm-11.17,86.16c-4.13,2.3-8.6,4.07-13.29,5.25l-.35-1.38c4.57-1.16,8.92-2.88,12.95-5.12l.69,1.24h0Zm-13.36-100.34l-.37,1.38c-4.48-1.2-9.12-1.8-13.8-1.8h-.13v-1.42h.12c4.81,0,9.58,.62,14.17,1.85Zm-14.12,106.94l-.02,.41c-4.8,0-9.55-.58-14.15-1.74l.35-1.38c4.48,1.12,9.12,1.69,13.78,1.69l.03,1.01Zm-13.97-105.53c-4.49,1.21-8.81,3.01-12.84,5.36l-.72-1.23c4.14-2.41,8.58-4.26,13.19-5.5l.37,1.38Zm-12.81,97.74l-.69,1.25c-4.22-2.34-8.07-5.22-11.44-8.57l1.01-1.01c3.27,3.26,7.01,6.06,11.12,8.34Zm-11.05-83.88c-3.29,3.3-6.14,7.02-8.46,11.05l-1.23-.71c2.38-4.14,5.31-7.96,8.68-11.35l1.01,1.01Zm-8.44,64.46l-1.24,.69c-2.26-4.07-4.03-8.54-5.25-13.28l1.38-.36c1.19,4.62,2.91,8.97,5.12,12.94Zm-5.33-40.54c-1.18,4.45-1.78,9.06-1.78,13.7v.07l-1.42,.06v-.1h0c0-4.8,.61-9.54,1.82-14.1l1.38,.37Z"/>
        <circle class="cls-9" cx="320.89" cy="1050.39" r="8.45"/>
      </g>
      <circle class="cls-8" cx="1036.42" cy="389.75" r="15.35"/>
      <rect class="cls-5" x="539.37" y="288.86" width="176.8" height="27.86" rx="13.5" ry="13.5"/>
      <rect class="cls-11" x="454" y="171.25" width="176.8" height="27.86" rx="13.5" ry="13.5"/>
      <circle class="cls-7" cx="1105.05" cy="510.88" r="23.83"/>
      <circle class="cls-5" cx="1144.92" cy="578.21" r="15.35"/>
      <circle class="cls-10" cx="1072.71" cy="610.57" r="28.33"/>
      <path class="cls-13" d="M255.97,781.45c54.12,0,98-43.86,98-97.98s-43.88-97.98-98-97.98"/>
      <path class="cls-13" d="M255.97,763.94c44.46,0,80.5-36.04,80.5-80.47s-36.04-80.5-80.5-80.5"/>
      <path class="cls-13" d="M255.97,746.86c35.02,0,63.42-28.38,63.42-63.4s-28.4-63.42-63.42-63.42"/>
      <path class="cls-13" d="M255.97,799.04c63.85,0,115.59-51.75,115.59-115.57s-51.75-115.57-115.59-115.57"/>
      <path class="cls-10" d="M126.82,683.46H255.97v-129.15c-71.32,0-129.15,57.81-129.15,129.15Z"/>
      <circle class="cls-17" cx="328.49" cy="593.27" r="5.53"/>
      <circle class="cls-17" cx="316.52" cy="665.57" r="5.53"/>
      <circle class="cls-17" cx="333.55" cy="705.62" r="5.53"/>
      <circle class="cls-17" cx="333.55" cy="743.15" r="5.53"/>
      <path class="cls-12" d="M126.82,683.46c0,71.32,57.83,129.15,129.15,129.15v-129.15H126.82Z"/>
      <rect class="cls-5" x="97.69" y="429.17" width="44.8" height="44.8" transform="translate(240.19 903.13) rotate(180)"/>
      <rect class="cls-11" x="50.63" y="514.06" width="64.14" height="64.14" transform="translate(165.39 1092.27) rotate(180)"/>
      <g>
        <g>
          <rect class="cls-18" x="556.09" y="632.77" width="106.46" height="166.37" transform="translate(-155.26 168.89) rotate(-14.02)"/>
          <path class="cls-18" d="M578.2,811.05l103.29-25.78c1.18-.29,1.97-1.2,1.77-2.02l-40.29-161.42c-.21-.82-1.33-1.25-2.51-.96l-103.29,25.78c-1.18,.29-1.97,1.2-1.77,2.02l40.29,161.42c.21,.82,1.33,1.25,2.51,.96Zm100.41-28.23l-99.02,24.72-39.55-158.44,99.02-24.72,39.55,158.44Z"/>
          <line class="cls-16" x1="526.67" y1="640.31" x2="629.71" y2="614.59"/>
          <path class="cls-11" d="M560.59,728.49l98.15-24.5c6.78-1.69,11.18-7.44,9.83-12.83v-.03c-1.35-5.4-7.94-8.4-14.72-6.71l-98.15,24.5c-6.78,1.69-11.18,7.44-9.83,12.83v.03c1.35,5.4,7.94,8.4,14.72,6.71Z"/>
          <path class="cls-11" d="M567.92,757.83l98.15-24.5c6.78-1.69,11.18-7.44,9.83-12.83v-.03c-1.35-5.4-7.94-8.4-14.72-6.71l-98.15,24.5c-6.78,1.69-11.18,7.44-9.83,12.83v.03c1.35,5.4,7.94,8.4,14.72,6.71Z"/>
        </g>
        <g id="_464_artifical_inteligence_flatline" data-name=" 464 artifical inteligence flatline">
          <path class="cls-18" d="M533.47,431.33h83.14c31.18,0,61.48,16.34,72.91,44.1,11.43,27.77,8.31,74.97,5.72,105.38-5.76,69.19-73.72,106.69-87.29,102.92s-81.68-49.88-81.68-49.88l7.21-202.52Z"/>
          <path class="cls-18" d="M610.06,685.05c7,0,19.43-5.4,31.76-14.01,14.99-10.39,50.26-40.16,54.41-90.14,3.14-37.74,4.91-79.85-5.8-105.85-11.02-26.75-40.7-44.71-73.87-44.71h-83.14c-.56,0-1.02,.44-1.04,1l-7.36,202.58c-.02,.36,.16,.7,.46,.89,2.79,1.89,68.32,46.2,81.99,49.88,.84,.24,1.71,.36,2.58,.35Zm6.51-252.63c32.32,0,61.25,17.48,71.95,43.48,11.95,29.1,7.69,80.27,5.65,104.88-4.07,49.09-38.8,78.19-53.54,88.58-14.74,10.39-27.93,14.67-32.57,13.41-12.74-3.51-74.82-45.25-80.89-49.36l7.3-200.98h82.1Z"/>
          <path class="cls-18" d="M527.25,561.73c14.38,0,30.12-6.92,47.95-20.78,9.23-7.21,21.28-8.13,32.94-9.02,14.92-1.14,29.1-2.2,34.96-16.48,5.35-12.2,4.97-26.16-1.02-38.06-6.05-11.56-17.42-19.64-31.99-22.74-29.43-6.24-95.27-5.24-121.71,19.2-9.42,8.33-14.58,20.46-14.07,33.03,.58,15.82,9.71,33.03,23.24,43.79,8.31,7.03,18.81,10.95,29.7,11.06Zm45.97-108.39c12.22-.14,24.43,.95,36.43,3.24,13.93,2.97,24.82,10.66,30.55,21.66,5.7,11.36,6.04,24.68,.91,36.31-5.45,13.09-18.29,14.07-33.25,15.19-11.97,.91-24.34,1.87-34.04,9.46h0c-30.03,23.53-53.89,26.6-75.09,9.75-13.07-10.39-21.89-27.02-22.45-42.25-.48-11.95,4.43-23.49,13.39-31.43,17.73-16.27,53.39-21.93,83.55-21.93Z"/>
          <circle class="cls-11" cx="577.34" cy="644.54" r="39.2"/>
          <path class="cls-18" d="M577.34,684.78c22.23,.01,40.27-18,40.28-40.24,.01-22.23-18-40.27-40.24-40.28s-40.27,18-40.28,40.24v.04c.03,22.21,18.03,40.2,40.24,40.24Zm0-78.42c21.09-.01,38.19,17.07,38.2,38.16,.01,21.09-17.07,38.19-38.16,38.2-21.09,.01-38.19-17.07-38.2-38.16v-.02c.02-21.07,17.09-38.15,38.16-38.18Z"/>
          <circle class="cls-18" cx="577.34" cy="644.54" r="25.02"/>
          <path class="cls-18" d="M577.34,670.6c14.39,0,26.06-11.67,26.06-26.06s-11.67-26.06-26.06-26.06c-14.39,0-26.06,11.67-26.06,26.06h0c.01,14.39,11.67,26.05,26.06,26.06Zm0-50.05c13.25,0,23.98,10.74,23.98,23.98s-10.74,23.98-23.98,23.98-23.98-10.74-23.98-23.98h0c0-13.25,10.74-23.98,23.98-23.98Z"/>
          <path class="cls-18" d="M552.32,645.58h50.05c.57,0,1.04-.47,1.04-1.04s-.47-1.04-1.04-1.04h-50.05c-.57,0-1.04,.47-1.04,1.04s.47,1.04,1.04,1.04h0Z"/>
          <path class="cls-2" d="M456.32,578.94s-13.99-57.93-1.02-91.12c20.99-53.75,78.31-61.96,78.31-61.96v19.97l18.71,1.54-2.33,109.55c5.13,3.06,19.45,4.16,20.49,12.78,1.04,8.63-3.43,70.13-5.47,88.56-2.04,18.44-39.49,50.17-96.92,45.04,0,0-1.04-24.82-1.04-29.68s-10.23-6.55-10.99-9.42c-.41-2.9-.41-5.85,0-8.75,0,0-10.25-3.6-9.73-6.67,.76-2.48,2.07-4.76,3.85-6.65,0,0-22.28-.25-24.32-8.44-2.04-8.19,30.45-54.77,30.45-54.77Z"/>
          <path class="cls-1" d="M480.18,704.9c20.15,.26,40.02-4.68,57.7-14.36,16-9.15,27.02-21.76,28.25-32.13,1.87-16.94,6.51-79.79,5.45-88.81-.79-6.8-8.58-9.25-14.86-11.22-1.91-.55-3.78-1.25-5.59-2.08l2.31-108.91c.01-.55-.41-1.02-.96-1.06l-17.75-1.45v-19c0-.3-.13-.58-.35-.77-.23-.2-.53-.29-.83-.25-.58,0-58.2,8.9-79.15,62.58-12.32,31.57-.39,85.73,.89,91.28-4.41,6.24-32.42,47.03-30.37,55.24,1.87,7.44,17.23,8.87,23.2,9.17-1.3,1.61-2.23,3.49-2.72,5.51-.56,3.35,6.44,6.34,9.62,7.52-.37,2.76-.33,5.56,.12,8.31,.44,1.64,2.56,2.7,4.99,3.95,2.81,1.41,5.97,2.99,5.97,5.2,0,4.82,1,28.72,1.04,29.74,.02,.52,.42,.94,.94,.98,3.99,.35,7.96,.56,12.12,.56Zm71.12-256.56l-2.31,108.56c0,.38,.19,.73,.52,.91,2.09,1.07,4.28,1.92,6.55,2.54,5.99,1.89,12.78,4.03,13.43,9.5,1,8.44-3.35,69.27-5.47,88.33-2.08,18.29-39.49,48.76-94.88,44.19-.19-4.51-1-24.46-1-28.72,0-3.47-3.76-5.38-7.11-7.05-1.66-.85-3.72-1.89-3.93-2.64-.39-2.76-.39-5.56,0-8.31,.06-.49-.24-.96-.71-1.12-4.93-1.73-9.23-4.34-9.04-5.49,.72-2.28,1.95-4.38,3.57-6.13,.28-.29,.37-.73,.21-1.1-.16-.38-.54-.64-.96-.64-5.97,0-21.8-1.58-23.32-7.65-1.41-5.67,17.35-35.33,30.3-53.93,.17-.24,.23-.54,.17-.83-.15-.58-13.76-57.99-1.06-90.49,18.85-48.32,68.03-59.53,76.3-61.08v18.71c0,.54,.41,1,.96,1.04l17.77,1.43Z"/>
          <circle class="cls-11" cx="638.72" cy="585.66" r="44.94"/>
          <path class="cls-18" d="M638.72,631.63c25.39,0,45.97-20.58,45.97-45.97s-20.58-45.97-45.97-45.97c-25.39,0-45.97,20.58-45.97,45.97h0c.03,25.38,20.6,45.94,45.97,45.97Zm0-89.87c24.24,0,43.9,19.65,43.9,43.9s-19.65,43.9-43.9,43.9-43.9-19.65-43.9-43.9h0c.03-24.23,19.67-43.86,43.9-43.9Z"/>
          <circle class="cls-11" cx="638.72" cy="585.66" r="29.93"/>
          <path class="cls-18" d="M638.72,616.62c17.1,.01,30.98-13.84,30.99-30.95,.01-17.1-13.84-30.98-30.95-30.99-17.1-.01-30.98,13.84-30.99,30.95v.02c.02,17.09,13.86,30.93,30.95,30.97Zm0-59.86c15.96-.01,28.9,12.91,28.91,28.87,.01,15.96-12.91,28.9-28.87,28.91-15.96,.01-28.9-12.91-28.91-28.87v-.02c.02-15.94,12.93-28.86,28.87-28.89Z"/>
          <circle class="cls-18" cx="638.72" cy="585.66" r="15.36"/>
          <path class="cls-18" d="M638.72,602.06c9.06,0,16.4-7.34,16.4-16.4s-7.34-16.4-16.4-16.4-16.4,7.34-16.4,16.4h0c.01,9.05,7.35,16.39,16.4,16.4Zm0-30.72c7.91,0,14.32,6.41,14.32,14.32s-6.41,14.32-14.32,14.32-14.32-6.41-14.32-14.32h0c.01-7.9,6.42-14.31,14.32-14.32Z"/>
          <path class="cls-18" d="M625.4,594.32c.22,0,.42-.07,.6-.19l25.32-17.19c.47-.33,.59-.98,.27-1.45-.31-.47-.94-.6-1.41-.29l-.02,.02-25.34,17.23c-.47,.33-.59,.98-.27,1.45,.2,.27,.52,.42,.85,.42Z"/>
          <path class="cls-18" d="M628.82,598.44c.21,0,.41-.07,.58-.19l24.55-16.34c.51-.27,.7-.9,.42-1.41-.27-.51-.9-.7-1.41-.42-.06,.03-.11,.07-.16,.11l-24.55,16.42c-.47,.3-.61,.93-.31,1.41l.02,.03c.2,.27,.52,.41,.85,.39Z"/>
          <path class="cls-2" d="M574.58,540.04c21.32-16.63,57.32-.52,67.57-25.09,10.25-24.57-1.04-52.73-32.26-59.38-31.22-6.65-95.32-4.61-120.82,18.93-25.5,23.55-11.45,58.88,9.12,75.26,20.58,16.38,44.64,15.11,76.38-9.73Z"/>
        </g>
      </g>
      <path class="cls-15" d="M1043.48,571.32c-30.12,19.16-49.44-11.21-79.56,7.95s-10.79,49.54-40.9,68.7c-30.12,19.16-49.44-11.21-79.56,7.95-30.12,19.16-10.79,49.54-40.91,68.7s-49.45-11.21-79.56,7.96-10.79,49.54-40.91,68.7"/>
      <path class="cls-15" d="M997.42,501.2c-30.12,19.16-49.44-11.21-79.56,7.95s-10.79,49.54-40.9,68.7c-30.12,19.16-49.44-11.21-79.56,7.95-30.12,19.16-10.79,49.54-40.91,68.7-30.12,19.16-49.45-11.21-79.56,7.96s-10.79,49.54-40.91,68.7"/>
      <path class="cls-15" d="M956.36,436.67c-30.12,19.16-49.44-11.21-79.56,7.95-30.12,19.16-10.79,49.54-40.9,68.7-30.12,19.16-49.44-11.21-79.56,7.95-30.12,19.16-10.79,49.54-40.91,68.7-30.12,19.16-49.45-11.21-79.56,7.96s-10.79,49.54-40.91,68.7"/>
      <circle class="cls-10" cx="664.42" cy="864.37" r="132.93"/>
      <path class="cls-14" d="M762.4,863.62c0-54.12-43.86-98-97.98-98s-97.98,43.88-97.98,98"/>
      <path class="cls-14" d="M744.89,863.62c0-44.46-36.04-80.5-80.47-80.5s-80.5,36.04-80.5,80.5"/>
      <path class="cls-14" d="M727.82,863.62c0-35.02-28.38-63.42-63.4-63.42s-63.42,28.4-63.42,63.42"/>
      <path class="cls-14" d="M779.99,863.62c0-63.85-51.75-115.59-115.57-115.59s-115.57,51.75-115.57,115.59"/>
      <path class="cls-14" d="M664.42,961.65c54.12,0,97.98-43.88,97.98-98"/>
      <path class="cls-14" d="M664.42,944.15c44.46,0,80.5-36.04,80.5-80.5"/>
      <path class="cls-14" d="M664.42,927.07c35.02,0,63.42-28.4,63.42-63.42"/>
      <path class="cls-14" d="M664.42,979.24c63.83,0,115.57-51.75,115.57-115.59"/>
      <rect class="cls-6" x="505.83" y="862.9" width="158.59" height="158.59" transform="translate(1170.25 1884.39) rotate(180)"/>
      <path class="cls-14" d="M664.42,944.15h-68.51c-23.71,0-42.95,19.31-42.95,43.17v34.17"/>
      <g>
        <path class="cls-14" d="M338.63,428.85c-22.3,0-22.3-21.41-44.59-21.41s-22.3,21.41-44.6,21.41c-22.3,0-22.3-21.41-44.6-21.41s-22.3,21.41-44.6,21.41c-22.3,0-22.3-21.41-44.6-21.41s-22.3,21.41-44.6,21.41"/>
        <path class="cls-14" d="M338.63,467.1c-22.3,0-22.3-21.41-44.59-21.41s-22.3,21.41-44.6,21.41c-22.3,0-22.3-21.41-44.6-21.41s-22.3,21.41-44.6,21.41c-22.3,0-22.3-21.41-44.6-21.41s-22.3,21.41-44.6,21.41"/>
        <path class="cls-14" d="M338.63,503.4c-22.3,0-22.3-21.41-44.59-21.41s-22.3,21.41-44.6,21.41c-22.3,0-22.3-21.41-44.6-21.41s-22.3,21.41-44.6,21.41c-22.3,0-22.3-21.41-44.6-21.41s-22.3,21.41-44.6,21.41"/>
      </g>
      <path class="cls-14" d="M664.42,927.06h-81.7c-28.28,0-51.23,23.58-51.23,52.71v41.72"/>
      <path class="cls-14" d="M664.42,961.65h-56.08c-19.41,0-35.16,14.94-35.16,33.4v26.44"/>
      <path class="cls-14" d="M664.42,979.24h-43.24c-14.97,0-27.11,10.55-27.11,23.58v18.67"/>
      <circle class="cls-8" cx="664.42" cy="864.17" r="26.7"/>
      <rect class="cls-5" x="689.89" y="942.04" width="176.8" height="27.86" rx="13.5" ry="13.5" transform="translate(1734.27 177.68) rotate(90)"/>
      <rect class="cls-8" x="632.37" y="1003.31" width="176.8" height="27.86" rx="13.5" ry="13.5" transform="translate(1738.01 296.47) rotate(90)"/>
      <circle class="cls-1" cx="601.06" cy="927.06" r="4.27"/>
      <circle class="cls-1" cx="575.01" cy="949.74" r="3.62"/>
      <circle class="cls-1" cx="575.01" cy="984.23" r="3.62"/>
      <circle class="cls-1" cx="627.31" cy="979.24" r="3.62"/>
      <path class="cls-10" d="M1036.56,194.59h.04c6.17-.24,12.09-1.08,17.63-2.5l-.44-1.72c-5.41,1.38-11.21,2.2-17.22,2.44v1.78Zm-17.69-2.32l.46-1.72c-5.61-1.5-11.01-3.74-16.04-6.66l-.89,1.54c5.17,3,10.72,5.3,16.48,6.84Zm51.94-6.69c5.27-2.91,10.07-6.51,14.27-10.71l-1.26-1.26c-4.09,4.08-8.75,7.58-13.87,10.41l.86,1.56Zm-82.56-11.01l1.26-1.26c-4.12-4.12-7.68-8.75-10.58-13.78l-1.54,.89c2.99,5.16,6.64,9.92,10.87,14.15Zm107.57-13.95c2.87-5.15,5.08-10.74,6.56-16.59l-1.72-.44c-1.44,5.7-3.59,11.14-6.39,16.16l1.55,.87h0Zm-125.26-16.68l1.72-.46c-1.49-5.59-2.25-11.38-2.25-17.23v-.16h-1.78v.15c0,6,.78,11.95,2.31,17.69Zm133.51-17.62l.52-.02c0-5.99-.73-11.93-2.17-17.66l-1.73,.43c1.4,5.59,2.11,11.38,2.11,17.21l1.26,.04Zm-131.75-17.44c1.51-5.61,3.76-11,6.69-16.03l-1.54-.89c-3.01,5.17-5.32,10.71-6.87,16.46l1.72,.46Zm122.02-15.99l1.56-.86c-2.92-5.27-6.52-10.08-10.7-14.28l-1.26,1.25c4.07,4.08,7.57,8.76,10.41,13.88Zm-104.72-13.8c4.13-4.11,8.77-7.66,13.8-10.56l-.89-1.54c-5.17,2.98-9.93,6.62-14.17,10.84l1.25,1.26Zm80.47-10.53l.86-1.55c-5.09-2.83-10.66-5.03-16.58-6.56l-.44,1.72c5.77,1.49,11.2,3.64,16.16,6.39Zm-50.6-6.65c5.55-1.47,11.31-2.22,17.11-2.22h.08l.08-1.77h-.13c-5.99,0-11.89,.76-17.59,2.27l.46,1.72Z"/>
      <rect class="cls-5" x="38.63" y="747.26" width="176.8" height="27.86" rx="13.5" ry="13.5"/>
      <rect class="cls-11" x="0" y="797.21" width="176.8" height="27.86" rx="13.5" ry="13.5"/>
      <rect class="cls-8" x="92.83" y="876.94" width="176.8" height="27.86" rx="13.5" ry="13.5"/>
      <rect class="cls-4" x="911.04" y="311.1" width="31.04" height="31.04" transform="translate(599.94 1253.17) rotate(-90)"/>
      <rect class="cls-11" x="838.81" y="278.49" width="44.44" height="44.44" transform="translate(560.33 1161.74) rotate(-90)"/>
      <rect class="cls-10" x="878.8" y="997.74" width="64.14" height="64.14" transform="translate(1821.74 2059.62) rotate(180)"/>
      <rect class="cls-8" x="617.15" y="234.26" width="176.8" height="27.86" rx="13.5" ry="13.5"/>
      <path class="cls-10" d="M330.14,464.33h.05c8.98-.36,17.6-1.58,25.65-3.63l-.64-2.51c-7.88,2.01-16.31,3.21-25.06,3.55v2.59Zm-25.74-3.38l.67-2.5c-8.16-2.19-16.02-5.45-23.35-9.69l-1.3,2.24c7.53,4.36,15.59,7.71,23.97,9.95Zm75.58-9.74c7.66-4.23,14.65-9.48,20.76-15.58l-1.83-1.83c-5.95,5.94-12.74,11.03-20.19,15.15l1.25,2.27Zm-120.13-16.03l1.83-1.83c-5.99-5.99-11.17-12.74-15.4-20.05l-2.24,1.3c4.34,7.51,9.66,14.44,15.81,20.59Zm156.52-20.29c4.18-7.5,7.39-15.62,9.54-24.14l-2.51-.63c-2.1,8.3-5.23,16.21-9.3,23.52l2.26,1.26h0Zm-182.27-24.28l2.5-.67c-2.17-8.13-3.27-16.56-3.27-25.06v-.23h-2.59v.22c0,8.74,1.13,17.39,3.36,25.74Zm194.27-25.64l.75-.04c0-8.72-1.06-17.35-3.15-25.7l-2.51,.63c2.04,8.14,3.08,16.56,3.08,25.04l1.84,.06Zm-191.71-25.38c2.2-8.16,5.47-16.01,9.73-23.33l-2.24-1.3c-4.37,7.52-7.73,15.58-9.99,23.96l2.5,.67Zm177.55-23.26l2.26-1.25c-4.25-7.67-9.49-14.66-15.58-20.77l-1.83,1.83c5.92,5.94,11.01,12.74,15.14,20.2Zm-152.38-20.08c6-5.98,12.76-11.15,20.08-15.37l-1.29-2.24c-7.52,4.33-14.45,9.64-20.62,15.77l1.83,1.83Zm117.09-15.33l1.26-2.26c-7.4-4.11-15.52-7.32-24.12-9.54l-.65,2.51c8.39,2.16,16.3,5.29,23.51,9.3Zm-73.64-9.68c8.08-2.14,16.46-3.23,24.9-3.23h.12l.11-2.58h-.19c-8.71,0-17.31,1.11-25.6,3.31l.66,2.5Z"/>
    </g>
  </g>
</svg>